<mxfile host="app.diagrams.net" modified="2020-05-20T06:46:45.500Z" agent="5.0 (Windows)" etag="HOg0aKOn9jDSHmIATJeY" version="13.1.3" type="github">
  <diagram id="KfAL5sggltQANWSq1Kuy" name="PayAtThePump">
    <mxGraphModel dx="1231" dy="806" grid="1" gridSize="10" guides="1" tooltips="1" connect="1" arrows="1" fold="1" page="1" pageScale="1" pageWidth="1169" pageHeight="826" math="0" shadow="0">
      <root>
        <mxCell id="0" />
        <mxCell id="1" parent="0" />
        <mxCell id="nv5p08xHvAk0T2kQ8cHB-1" value="Pay At The Pump" style="text;html=1;align=center;verticalAlign=middle;resizable=0;points=[];autosize=1;fontSize=18;fontStyle=1" vertex="1" parent="1">
          <mxGeometry x="922" y="13" width="160" height="30" as="geometry" />
        </mxCell>
        <mxCell id="nv5p08xHvAk0T2kQ8cHB-2" value="Kalpesh Patil" style="text;html=1;align=center;verticalAlign=middle;resizable=0;points=[];autosize=1;fontSize=15;" vertex="1" parent="1">
          <mxGeometry x="984" y="62" width="100" height="20" as="geometry" />
        </mxCell>
        <mxCell id="nv5p08xHvAk0T2kQ8cHB-24" value="" style="edgeStyle=orthogonalEdgeStyle;rounded=0;orthogonalLoop=1;jettySize=auto;html=1;endArrow=classic;endFill=1;fontSize=15;" edge="1" parent="1" source="nv5p08xHvAk0T2kQ8cHB-3" target="nv5p08xHvAk0T2kQ8cHB-4">
          <mxGeometry relative="1" as="geometry" />
        </mxCell>
        <mxCell id="nv5p08xHvAk0T2kQ8cHB-3" value="Start" style="strokeWidth=2;html=1;shape=mxgraph.flowchart.start_1;whiteSpace=wrap;fontSize=15;" vertex="1" parent="1">
          <mxGeometry x="2" y="130" width="100" height="60" as="geometry" />
        </mxCell>
        <mxCell id="nv5p08xHvAk0T2kQ8cHB-25" value="" style="edgeStyle=orthogonalEdgeStyle;rounded=0;orthogonalLoop=1;jettySize=auto;html=1;endArrow=classic;endFill=1;fontSize=15;" edge="1" parent="1" source="nv5p08xHvAk0T2kQ8cHB-4" target="nv5p08xHvAk0T2kQ8cHB-5">
          <mxGeometry relative="1" as="geometry" />
        </mxCell>
        <mxCell id="nv5p08xHvAk0T2kQ8cHB-4" value="Swipe Card" style="rounded=1;whiteSpace=wrap;html=1;absoluteArcSize=1;arcSize=14;strokeWidth=2;fontSize=15;" vertex="1" parent="1">
          <mxGeometry x="2" y="240" width="100" height="100" as="geometry" />
        </mxCell>
        <mxCell id="nv5p08xHvAk0T2kQ8cHB-26" value="" style="edgeStyle=orthogonalEdgeStyle;rounded=0;orthogonalLoop=1;jettySize=auto;html=1;endArrow=classic;endFill=1;fontSize=15;" edge="1" parent="1" source="nv5p08xHvAk0T2kQ8cHB-5" target="nv5p08xHvAk0T2kQ8cHB-6">
          <mxGeometry relative="1" as="geometry" />
        </mxCell>
        <mxCell id="nv5p08xHvAk0T2kQ8cHB-5" value="Authorize Card" style="rounded=1;whiteSpace=wrap;html=1;absoluteArcSize=1;arcSize=14;strokeWidth=2;fontSize=15;" vertex="1" parent="1">
          <mxGeometry x="182" y="240" width="100" height="100" as="geometry" />
        </mxCell>
        <mxCell id="nv5p08xHvAk0T2kQ8cHB-27" value="Yes" style="edgeStyle=orthogonalEdgeStyle;rounded=0;orthogonalLoop=1;jettySize=auto;html=1;endArrow=classic;endFill=1;fontSize=15;" edge="1" parent="1" source="nv5p08xHvAk0T2kQ8cHB-6" target="nv5p08xHvAk0T2kQ8cHB-9">
          <mxGeometry relative="1" as="geometry" />
        </mxCell>
        <mxCell id="nv5p08xHvAk0T2kQ8cHB-28" value="No" style="edgeStyle=orthogonalEdgeStyle;rounded=0;orthogonalLoop=1;jettySize=auto;html=1;endArrow=classic;endFill=1;fontSize=15;" edge="1" parent="1" source="nv5p08xHvAk0T2kQ8cHB-6" target="nv5p08xHvAk0T2kQ8cHB-8">
          <mxGeometry relative="1" as="geometry" />
        </mxCell>
        <mxCell id="nv5p08xHvAk0T2kQ8cHB-6" value="&lt;div&gt;Card&lt;/div&gt;&lt;div&gt;Authorized?&lt;br&gt;&lt;/div&gt;" style="strokeWidth=2;html=1;shape=mxgraph.flowchart.decision;whiteSpace=wrap;fontSize=15;" vertex="1" parent="1">
          <mxGeometry x="332" y="235" width="120" height="110" as="geometry" />
        </mxCell>
        <mxCell id="nv5p08xHvAk0T2kQ8cHB-39" value="Yes" style="edgeStyle=orthogonalEdgeStyle;rounded=0;orthogonalLoop=1;jettySize=auto;html=1;exitX=0;exitY=0.5;exitDx=0;exitDy=0;exitPerimeter=0;entryX=1;entryY=0.5;entryDx=0;entryDy=0;endArrow=classic;endFill=1;fontSize=15;" edge="1" parent="1" source="nv5p08xHvAk0T2kQ8cHB-20" target="nv5p08xHvAk0T2kQ8cHB-22">
          <mxGeometry relative="1" as="geometry" />
        </mxCell>
        <mxCell id="nv5p08xHvAk0T2kQ8cHB-41" value="No" style="edgeStyle=orthogonalEdgeStyle;rounded=0;orthogonalLoop=1;jettySize=auto;html=1;exitX=0.5;exitY=1;exitDx=0;exitDy=0;exitPerimeter=0;endArrow=classic;endFill=1;fontSize=15;" edge="1" parent="1" source="nv5p08xHvAk0T2kQ8cHB-20">
          <mxGeometry x="-0.0363" relative="1" as="geometry">
            <mxPoint x="752" y="750" as="targetPoint" />
            <mxPoint y="-1" as="offset" />
          </mxGeometry>
        </mxCell>
        <mxCell id="nv5p08xHvAk0T2kQ8cHB-20" value="&lt;div&gt;Want&lt;/div&gt;&lt;div&gt;Receipt?&lt;br&gt;&lt;/div&gt;" style="strokeWidth=2;html=1;shape=mxgraph.flowchart.decision;whiteSpace=wrap;fontSize=15;" vertex="1" parent="1">
          <mxGeometry x="692" y="543.5" width="120" height="110" as="geometry" />
        </mxCell>
        <mxCell id="nv5p08xHvAk0T2kQ8cHB-36" value="Yes" style="edgeStyle=orthogonalEdgeStyle;rounded=0;orthogonalLoop=1;jettySize=auto;html=1;endArrow=classic;endFill=1;fontSize=15;" edge="1" parent="1" source="nv5p08xHvAk0T2kQ8cHB-14" target="nv5p08xHvAk0T2kQ8cHB-32">
          <mxGeometry relative="1" as="geometry" />
        </mxCell>
        <mxCell id="nv5p08xHvAk0T2kQ8cHB-38" value="No" style="edgeStyle=orthogonalEdgeStyle;rounded=0;orthogonalLoop=1;jettySize=auto;html=1;exitX=0.5;exitY=0;exitDx=0;exitDy=0;exitPerimeter=0;entryX=1;entryY=0.5;entryDx=0;entryDy=0;endArrow=classic;endFill=1;fontSize=15;" edge="1" parent="1" source="nv5p08xHvAk0T2kQ8cHB-14" target="nv5p08xHvAk0T2kQ8cHB-13">
          <mxGeometry x="-0.3779" relative="1" as="geometry">
            <Array as="points">
              <mxPoint x="930" y="235" />
              <mxPoint x="930" y="169" />
            </Array>
            <mxPoint y="1" as="offset" />
          </mxGeometry>
        </mxCell>
        <mxCell id="nv5p08xHvAk0T2kQ8cHB-14" value="&lt;div&gt;Fuel Grade&lt;/div&gt;&lt;div&gt;Remaining?&lt;br&gt;&lt;/div&gt;" style="strokeWidth=2;html=1;shape=mxgraph.flowchart.decision;whiteSpace=wrap;fontSize=15;" vertex="1" parent="1">
          <mxGeometry x="872" y="235" width="120" height="110" as="geometry" />
        </mxCell>
        <mxCell id="nv5p08xHvAk0T2kQ8cHB-44" style="edgeStyle=orthogonalEdgeStyle;rounded=0;orthogonalLoop=1;jettySize=auto;html=1;exitX=0.5;exitY=1;exitDx=0;exitDy=0;endArrow=classic;endFill=1;fontSize=15;" edge="1" parent="1" source="nv5p08xHvAk0T2kQ8cHB-8">
          <mxGeometry relative="1" as="geometry">
            <mxPoint x="392" y="750" as="targetPoint" />
            <Array as="points">
              <mxPoint x="392" y="750" />
            </Array>
          </mxGeometry>
        </mxCell>
        <mxCell id="nv5p08xHvAk0T2kQ8cHB-8" value="&lt;div&gt;Display&lt;/div&gt;&lt;div&gt;Authorization&lt;/div&gt;&lt;div&gt;Error&lt;br&gt;&lt;/div&gt;" style="shape=parallelogram;html=1;strokeWidth=2;perimeter=parallelogramPerimeter;whiteSpace=wrap;rounded=1;arcSize=12;size=0.23;fontSize=15;" vertex="1" parent="1">
          <mxGeometry x="322" y="413" width="140" height="77" as="geometry" />
        </mxCell>
        <mxCell id="nv5p08xHvAk0T2kQ8cHB-45" style="edgeStyle=orthogonalEdgeStyle;rounded=0;orthogonalLoop=1;jettySize=auto;html=1;exitX=0.5;exitY=1;exitDx=0;exitDy=0;endArrow=classic;endFill=1;fontSize=15;" edge="1" parent="1" source="nv5p08xHvAk0T2kQ8cHB-22">
          <mxGeometry relative="1" as="geometry">
            <mxPoint x="571.8571428571429" y="750" as="targetPoint" />
          </mxGeometry>
        </mxCell>
        <mxCell id="nv5p08xHvAk0T2kQ8cHB-22" value="&lt;div&gt;Print&lt;/div&gt;&lt;div&gt;Receipt&lt;br&gt;&lt;/div&gt;" style="shape=parallelogram;html=1;strokeWidth=2;perimeter=parallelogramPerimeter;whiteSpace=wrap;rounded=1;arcSize=12;size=0.23;fontSize=15;" vertex="1" parent="1">
          <mxGeometry x="502" y="560" width="140" height="77" as="geometry" />
        </mxCell>
        <mxCell id="nv5p08xHvAk0T2kQ8cHB-47" style="edgeStyle=orthogonalEdgeStyle;rounded=0;orthogonalLoop=1;jettySize=auto;html=1;exitX=0;exitY=0.5;exitDx=0;exitDy=0;entryX=1;entryY=0.5;entryDx=0;entryDy=0;endArrow=classic;endFill=1;fontSize=15;" edge="1" parent="1" source="nv5p08xHvAk0T2kQ8cHB-18" target="nv5p08xHvAk0T2kQ8cHB-19">
          <mxGeometry relative="1" as="geometry" />
        </mxCell>
        <mxCell id="nv5p08xHvAk0T2kQ8cHB-48" style="edgeStyle=orthogonalEdgeStyle;rounded=0;orthogonalLoop=1;jettySize=auto;html=1;exitX=0.5;exitY=1;exitDx=0;exitDy=0;entryX=0.5;entryY=0;entryDx=0;entryDy=0;entryPerimeter=0;endArrow=classic;endFill=1;fontSize=15;" edge="1" parent="1" source="nv5p08xHvAk0T2kQ8cHB-18" target="nv5p08xHvAk0T2kQ8cHB-23">
          <mxGeometry relative="1" as="geometry" />
        </mxCell>
        <mxCell id="nv5p08xHvAk0T2kQ8cHB-18" value="&lt;div&gt;Store&lt;/div&gt;&lt;div&gt;Transaction&lt;/div&gt;&lt;div&gt;Data&lt;br&gt;&lt;/div&gt;" style="shape=parallelogram;html=1;strokeWidth=2;perimeter=parallelogramPerimeter;whiteSpace=wrap;rounded=1;arcSize=12;size=0.23;fontSize=15;" vertex="1" parent="1">
          <mxGeometry x="1044" y="565" width="118" height="67" as="geometry" />
        </mxCell>
        <mxCell id="nv5p08xHvAk0T2kQ8cHB-13" value="&lt;div&gt;Display&lt;/div&gt;&lt;div&gt;Sold Output&lt;br&gt;&lt;/div&gt;&lt;div&gt;Error&lt;br&gt;&lt;/div&gt;" style="shape=parallelogram;html=1;strokeWidth=2;perimeter=parallelogramPerimeter;whiteSpace=wrap;rounded=1;arcSize=12;size=0.23;fontSize=15;" vertex="1" parent="1">
          <mxGeometry x="752" y="130" width="140" height="77" as="geometry" />
        </mxCell>
        <mxCell id="nv5p08xHvAk0T2kQ8cHB-29" value="" style="edgeStyle=orthogonalEdgeStyle;rounded=0;orthogonalLoop=1;jettySize=auto;html=1;endArrow=classic;endFill=1;fontSize=15;" edge="1" parent="1" source="nv5p08xHvAk0T2kQ8cHB-9" target="nv5p08xHvAk0T2kQ8cHB-10">
          <mxGeometry relative="1" as="geometry" />
        </mxCell>
        <mxCell id="nv5p08xHvAk0T2kQ8cHB-9" value="&lt;div&gt;Store Card&lt;/div&gt;&lt;div&gt;Data&lt;br&gt;&lt;/div&gt;" style="strokeWidth=2;html=1;shape=mxgraph.flowchart.stored_data;whiteSpace=wrap;fontSize=15;" vertex="1" parent="1">
          <mxGeometry x="522" y="260" width="100" height="60" as="geometry" />
        </mxCell>
        <mxCell id="nv5p08xHvAk0T2kQ8cHB-31" value="" style="edgeStyle=orthogonalEdgeStyle;rounded=0;orthogonalLoop=1;jettySize=auto;html=1;endArrow=classic;endFill=1;fontSize=15;" edge="1" parent="1" source="nv5p08xHvAk0T2kQ8cHB-10" target="nv5p08xHvAk0T2kQ8cHB-14">
          <mxGeometry relative="1" as="geometry" />
        </mxCell>
        <mxCell id="nv5p08xHvAk0T2kQ8cHB-10" value="&lt;div&gt;Select Fuel&lt;/div&gt;&lt;div&gt;Grade&lt;br&gt;&lt;/div&gt;" style="rounded=1;whiteSpace=wrap;html=1;absoluteArcSize=1;arcSize=14;strokeWidth=2;fontSize=15;" vertex="1" parent="1">
          <mxGeometry x="692" y="240" width="100" height="100" as="geometry" />
        </mxCell>
        <mxCell id="nv5p08xHvAk0T2kQ8cHB-33" value="" style="edgeStyle=orthogonalEdgeStyle;rounded=0;orthogonalLoop=1;jettySize=auto;html=1;endArrow=classic;endFill=1;fontSize=15;" edge="1" parent="1" source="nv5p08xHvAk0T2kQ8cHB-32" target="nv5p08xHvAk0T2kQ8cHB-17">
          <mxGeometry relative="1" as="geometry" />
        </mxCell>
        <mxCell id="nv5p08xHvAk0T2kQ8cHB-32" value="&lt;div&gt;Pump&lt;/div&gt;&lt;div&gt;Gas&lt;br&gt;&lt;/div&gt;" style="rounded=1;whiteSpace=wrap;html=1;absoluteArcSize=1;arcSize=14;strokeWidth=2;fontSize=15;" vertex="1" parent="1">
          <mxGeometry x="1053" y="240" width="100" height="100" as="geometry" />
        </mxCell>
        <mxCell id="nv5p08xHvAk0T2kQ8cHB-34" value="" style="edgeStyle=orthogonalEdgeStyle;rounded=0;orthogonalLoop=1;jettySize=auto;html=1;endArrow=classic;endFill=1;fontSize=15;" edge="1" parent="1" source="nv5p08xHvAk0T2kQ8cHB-17" target="nv5p08xHvAk0T2kQ8cHB-18">
          <mxGeometry relative="1" as="geometry" />
        </mxCell>
        <mxCell id="nv5p08xHvAk0T2kQ8cHB-17" value="&lt;div&gt;Finalize&lt;/div&gt;&lt;div&gt;Transaction&lt;br&gt;&lt;/div&gt;" style="rounded=1;whiteSpace=wrap;html=1;absoluteArcSize=1;arcSize=14;strokeWidth=2;fontSize=15;" vertex="1" parent="1">
          <mxGeometry x="1053" y="401.5" width="100" height="100" as="geometry" />
        </mxCell>
        <mxCell id="nv5p08xHvAk0T2kQ8cHB-40" style="edgeStyle=orthogonalEdgeStyle;rounded=0;orthogonalLoop=1;jettySize=auto;html=1;exitX=0;exitY=0.5;exitDx=0;exitDy=0;entryX=1;entryY=0.5;entryDx=0;entryDy=0;entryPerimeter=0;endArrow=classic;endFill=1;fontSize=15;" edge="1" parent="1" source="nv5p08xHvAk0T2kQ8cHB-19" target="nv5p08xHvAk0T2kQ8cHB-20">
          <mxGeometry relative="1" as="geometry" />
        </mxCell>
        <mxCell id="nv5p08xHvAk0T2kQ8cHB-19" value="Prompt For Receipt" style="rounded=1;whiteSpace=wrap;html=1;absoluteArcSize=1;arcSize=14;strokeWidth=2;fontSize=15;" vertex="1" parent="1">
          <mxGeometry x="892" y="548.5" width="100" height="100" as="geometry" />
        </mxCell>
        <mxCell id="nv5p08xHvAk0T2kQ8cHB-23" value="End" style="strokeWidth=2;html=1;shape=mxgraph.flowchart.start_1;whiteSpace=wrap;fontSize=15;" vertex="1" parent="1">
          <mxGeometry x="1053" y="720" width="100" height="60" as="geometry" />
        </mxCell>
        <mxCell id="nv5p08xHvAk0T2kQ8cHB-46" value="" style="endArrow=classic;html=1;fontSize=15;entryX=0;entryY=0.5;entryDx=0;entryDy=0;entryPerimeter=0;endFill=1;" edge="1" parent="1" target="nv5p08xHvAk0T2kQ8cHB-23">
          <mxGeometry width="50" height="50" relative="1" as="geometry">
            <mxPoint x="392" y="750" as="sourcePoint" />
            <mxPoint x="612" y="710" as="targetPoint" />
          </mxGeometry>
        </mxCell>
      </root>
    </mxGraphModel>
  </diagram>
</mxfile>
